REM DIRINDEX 1\2,1\3
REM DIRNAME cjc102,folder01,folder02
TITLE ""
FILE "CD1Track10.mp3" MP3
  TRACK 01 AUDIO
    TITLE "0:"
    INDEX 01 00:00:00
  TRACK 02 AUDIO
    TITLE "2:cjc102_0398"
    INDEX 01 00:00:25
  TRACK 03 AUDIO
    TITLE "0:"
    INDEX 01 00:01:44
  TRACK 04 AUDIO
    TITLE "3:cjc102_0399"
    INDEX 01 00:01:46
  TRACK 05 AUDIO
    TITLE "0:"
    INDEX 01 00:03:06
  TRACK 06 AUDIO
    TITLE "3:cjc102_0400"
    INDEX 01 00:03:29
  TRACK 07 AUDIO
    TITLE "0:"
    INDEX 01 00:10:02
  TRACK 08 AUDIO
    TITLE "2:cjc102_0401"
    INDEX 01 00:10:10
  TRACK 09 AUDIO
    TITLE "0:"
    INDEX 01 00:11:37
  TRACK 10 AUDIO
    TITLE "3:cjc102_0402"
    INDEX 01 00:12:60
  TRACK 11 AUDIO
    TITLE "0:"
    INDEX 01 00:13:51
  TRACK 12 AUDIO
    TITLE "2:cjc102_0403"
    INDEX 01 00:14:04
  TRACK 13 AUDIO
    TITLE "0:"
    INDEX 01 00:15:19
  TRACK 14 AUDIO
    TITLE "3:cjc102_0404"
    INDEX 01 00:16:08
  TRACK 15 AUDIO
    TITLE "0:"
    INDEX 01 00:16:67
  TRACK 16 AUDIO
    TITLE "2:cjc102_0405"
    INDEX 01 00:17:18
  TRACK 17 AUDIO
    TITLE "0:"
    INDEX 01 00:18:21
  TRACK 18 AUDIO
    TITLE "3:cjc102_0406"
    INDEX 01 00:19:28
  TRACK 19 AUDIO
    TITLE "0:"
    INDEX 01 00:20:28
  TRACK 20 AUDIO
    TITLE "2:cjc102_0407"
    INDEX 01 00:20:57
  TRACK 21 AUDIO
    TITLE "0:"
    INDEX 01 00:21:74
  TRACK 22 AUDIO
    TITLE "3:cjc102_0408"
    INDEX 01 00:22:56
  TRACK 23 AUDIO
    TITLE "0:"
    INDEX 01 00:23:48
  TRACK 24 AUDIO
    TITLE "2:cjc102_0409"
    INDEX 01 00:23:73
  TRACK 25 AUDIO
    TITLE "0:"
    INDEX 01 00:25:17
  TRACK 26 AUDIO
    TITLE "3:cjc102_0410"
    INDEX 01 00:25:74
  TRACK 27 AUDIO
    TITLE "0:"
    INDEX 01 00:26:56
  TRACK 28 AUDIO
    TITLE "2:cjc102_0411"
    INDEX 01 00:27:26
  TRACK 29 AUDIO
    TITLE "0:"
    INDEX 01 00:28:37
  TRACK 30 AUDIO
    TITLE "3:cjc102_0412"
    INDEX 01 00:29:33
  TRACK 31 AUDIO
    TITLE "0:"
    INDEX 01 00:30:30
  TRACK 32 AUDIO
    TITLE "2:cjc102_0413"
    INDEX 01 00:30:52
  TRACK 33 AUDIO
    TITLE "0:"
    INDEX 01 00:31:67
  TRACK 34 AUDIO
    TITLE "3:cjc102_0414"
    INDEX 01 00:32:74
  TRACK 35 AUDIO
    TITLE "0:"
    INDEX 01 00:33:64
  TRACK 36 AUDIO
    TITLE "2:cjc102_0415"
    INDEX 01 00:34:10
  TRACK 37 AUDIO
    TITLE "0:"
    INDEX 01 00:35:21
  TRACK 38 AUDIO
    TITLE "3:cjc102_0416"
    INDEX 01 00:36:21
  TRACK 39 AUDIO
    TITLE "0:"
    INDEX 01 00:37:16
  TRACK 40 AUDIO
    TITLE "2:cjc102_0417"
    INDEX 01 00:37:59
  TRACK 41 AUDIO
    TITLE "0:"
    INDEX 01 00:39:13
  TRACK 42 AUDIO
    TITLE "3:cjc102_0418"
    INDEX 01 00:40:11
  TRACK 43 AUDIO
    TITLE "0:"
    INDEX 01 00:41:00
  TRACK 44 AUDIO
    TITLE "2:cjc102_0419"
    INDEX 01 00:41:26
  TRACK 45 AUDIO
    TITLE "0:"
    INDEX 01 00:42:49
  TRACK 46 AUDIO
    TITLE "3:cjc102_0420"
    INDEX 01 00:43:52
  TRACK 47 AUDIO
    TITLE "0:"
    INDEX 01 00:44:46
  TRACK 48 AUDIO
    TITLE "2:cjc102_0421"
    INDEX 01 00:44:67
  TRACK 49 AUDIO
    TITLE "0:"
    INDEX 01 00:46:13
  TRACK 50 AUDIO
    TITLE "3:cjc102_0422"
    INDEX 01 00:47:07
  TRACK 51 AUDIO
    TITLE "0:"
    INDEX 01 00:48:28
  TRACK 52 AUDIO
    TITLE "2:cjc102_0423"
    INDEX 01 00:48:49
  TRACK 53 AUDIO
    TITLE "0:"
    INDEX 01 00:49:61
  TRACK 54 AUDIO
    TITLE "3:cjc102_0424"
    INDEX 01 00:50:62
  TRACK 55 AUDIO
    TITLE "0:"
    INDEX 01 00:51:71
  TRACK 56 AUDIO
    TITLE "2:cjc102_0425"
    INDEX 01 00:52:14
  TRACK 57 AUDIO
    TITLE "0:"
    INDEX 01 00:53:43
  TRACK 58 AUDIO
    TITLE "3:cjc102_0426"
    INDEX 01 00:54:60
  TRACK 59 AUDIO
    TITLE "0:"
    INDEX 01 00:56:02
  TRACK 60 AUDIO
    TITLE "2:cjc102_0427"
    INDEX 01 00:56:43
  TRACK 61 AUDIO
    TITLE "0:"
    INDEX 01 00:57:52
  TRACK 62 AUDIO
    TITLE "2:cjc102_0428"
    INDEX 01 00:58:58
  TRACK 63 AUDIO
    TITLE "0:"
    INDEX 01 00:59:49
  TRACK 64 AUDIO
    TITLE "3:cjc102_0429"
    INDEX 01 01:01:03
  TRACK 65 AUDIO
    TITLE "0:"
    INDEX 01 01:02:20
  TRACK 66 AUDIO
    TITLE "2:cjc102_0430"
    INDEX 01 01:02:34
  TRACK 67 AUDIO
    TITLE "0:"
    INDEX 01 01:03:49
  TRACK 68 AUDIO
    TITLE "2:cjc102_0431"
    INDEX 01 01:04:31
  TRACK 69 AUDIO
    TITLE "0:"
    INDEX 01 01:05:52
  TRACK 70 AUDIO
    TITLE "3:cjc102_0432"
    INDEX 01 01:06:47
  TRACK 71 AUDIO
    TITLE "0:"
    INDEX 01 01:07:53
  TRACK 72 AUDIO
    TITLE "2:cjc102_0433"
    INDEX 01 01:08:15
  TRACK 73 AUDIO
    TITLE "0:"
    INDEX 01 01:09:26
  TRACK 74 AUDIO
    TITLE "2:cjc102_0434"
    INDEX 01 01:10:04
  TRACK 75 AUDIO
    TITLE "0:"
    INDEX 01 01:11:23
  TRACK 76 AUDIO
    TITLE "3:cjc102_0435"
    INDEX 01 01:12:54
  TRACK 77 AUDIO
    TITLE "0:"
    INDEX 01 01:13:59
  TRACK 78 AUDIO
    TITLE "2:cjc102_0436"
    INDEX 01 01:14:14
  TRACK 79 AUDIO
    TITLE "0:"
    INDEX 01 01:15:19
  TRACK 80 AUDIO
    TITLE "2:cjc102_0437"
    INDEX 01 01:16:05
  TRACK 81 AUDIO
    TITLE "0:"
    INDEX 01 01:17:14
  TRACK 82 AUDIO
    TITLE "3:cjc102_0438"
    INDEX 01 01:18:37
  TRACK 83 AUDIO
    TITLE "0:"
    INDEX 01 01:19:52
  TRACK 84 AUDIO
    TITLE "2:cjc102_0439"
    INDEX 01 01:19:72
  TRACK 85 AUDIO
    TITLE "0:"
    INDEX 01 01:21:08
  TRACK 86 AUDIO
    TITLE "2:cjc102_0440"
    INDEX 01 01:21:59
  TRACK 87 AUDIO
    TITLE "0:"
    INDEX 01 01:23:03
  TRACK 88 AUDIO
    TITLE "3:cjc102_0441"
    INDEX 01 01:24:30
  TRACK 89 AUDIO
    TITLE "0:"
    INDEX 01 01:25:47
  TRACK 90 AUDIO
    TITLE "2:cjc102_0442"
    INDEX 01 01:26:48
  TRACK 91 AUDIO
    TITLE "0:"
    INDEX 01 01:28:51
  TRACK 92 AUDIO
    TITLE "3:cjc102_0443"
    INDEX 01 01:29:58
  TRACK 93 AUDIO
    TITLE "0:"
    INDEX 01 01:30:73
  TRACK 94 AUDIO
    TITLE "2:cjc102_0444"
    INDEX 01 01:31:57
  TRACK 95 AUDIO
    TITLE "0:"
    INDEX 01 01:34:24
  TRACK 96 AUDIO
    TITLE "3:cjc102_0445"
    INDEX 01 01:35:45
  TRACK 97 AUDIO
    TITLE "0:"
    INDEX 01 01:36:47
  TRACK 98 AUDIO
    TITLE "2:cjc102_0446"
    INDEX 01 01:37:22
  TRACK 99 AUDIO
    TITLE "0:"
    INDEX 01 01:40:19
  TRACK 100 AUDIO
    TITLE "3:cjc102_0447"
    INDEX 01 01:41:42
  TRACK 101 AUDIO
    TITLE "0:"
    INDEX 01 01:42:69
  TRACK 102 AUDIO
    TITLE "2:cjc102_0448"
    INDEX 01 01:43:43
  TRACK 103 AUDIO
    TITLE "0:"
    INDEX 01 01:47:46
